<mxfile host="app.diagrams.net" modified="2023-05-20T07:05:23.852Z" agent="Mozilla/5.0 (Windows NT 10.0; Win64; x64) AppleWebKit/537.36 (KHTML, like Gecko) Chrome/113.0.0.0 Safari/537.36" etag="AEWQtOTTAmiIXbEqQbbV" version="21.3.2" type="device">
  <diagram name="Page-1" id="9jUYqDGKl-rQ5DNVtu5S">
    <mxGraphModel dx="1434" dy="796" grid="1" gridSize="10" guides="1" tooltips="1" connect="1" arrows="1" fold="1" page="1" pageScale="1" pageWidth="2339" pageHeight="3300" math="0" shadow="0">
      <root>
        <mxCell id="0" />
        <mxCell id="1" parent="0" />
        <mxCell id="3G0gbCFOmfLACH73Wg2g-4" style="edgeStyle=orthogonalEdgeStyle;rounded=0;orthogonalLoop=1;jettySize=auto;html=1;exitX=0.5;exitY=1;exitDx=0;exitDy=0;entryX=0.5;entryY=0;entryDx=0;entryDy=0;" parent="1" source="3G0gbCFOmfLACH73Wg2g-1" target="3G0gbCFOmfLACH73Wg2g-2" edge="1">
          <mxGeometry relative="1" as="geometry" />
        </mxCell>
        <mxCell id="3G0gbCFOmfLACH73Wg2g-1" value="Start" style="ellipse;whiteSpace=wrap;html=1;fontSize=14;" parent="1" vertex="1">
          <mxGeometry x="630" width="100" height="60" as="geometry" />
        </mxCell>
        <mxCell id="3G0gbCFOmfLACH73Wg2g-5" style="edgeStyle=orthogonalEdgeStyle;rounded=0;orthogonalLoop=1;jettySize=auto;html=1;exitX=0.5;exitY=1;exitDx=0;exitDy=0;entryX=0.5;entryY=0;entryDx=0;entryDy=0;" parent="1" source="3G0gbCFOmfLACH73Wg2g-2" target="3G0gbCFOmfLACH73Wg2g-3" edge="1">
          <mxGeometry relative="1" as="geometry" />
        </mxCell>
        <mxCell id="3G0gbCFOmfLACH73Wg2g-2" value="N" style="shape=parallelogram;perimeter=parallelogramPerimeter;whiteSpace=wrap;html=1;fixedSize=1;" parent="1" vertex="1">
          <mxGeometry x="640" y="80" width="80" height="30" as="geometry" />
        </mxCell>
        <mxCell id="3G0gbCFOmfLACH73Wg2g-8" style="edgeStyle=orthogonalEdgeStyle;rounded=0;orthogonalLoop=1;jettySize=auto;html=1;exitX=0.5;exitY=1;exitDx=0;exitDy=0;" parent="1" source="3G0gbCFOmfLACH73Wg2g-3" target="3G0gbCFOmfLACH73Wg2g-6" edge="1">
          <mxGeometry relative="1" as="geometry" />
        </mxCell>
        <mxCell id="3G0gbCFOmfLACH73Wg2g-3" value="numall = {&amp;nbsp; }&lt;br&gt;primes = {&amp;nbsp; }&lt;br&gt;nprimes = 0&lt;br&gt;x = 2&lt;br&gt;i = 0" style="rounded=0;whiteSpace=wrap;html=1;" parent="1" vertex="1">
          <mxGeometry x="635" y="125" width="90" height="90" as="geometry" />
        </mxCell>
        <mxCell id="lhCDFVgRR21-XCeL078A-51" style="edgeStyle=orthogonalEdgeStyle;rounded=0;orthogonalLoop=1;jettySize=auto;html=1;exitX=0.5;exitY=1;exitDx=0;exitDy=0;entryX=0.5;entryY=0;entryDx=0;entryDy=0;" edge="1" parent="1" source="3G0gbCFOmfLACH73Wg2g-6" target="lhCDFVgRR21-XCeL078A-50">
          <mxGeometry relative="1" as="geometry" />
        </mxCell>
        <mxCell id="3G0gbCFOmfLACH73Wg2g-6" value="Wypełnij tablicę &lt;i&gt;numall&lt;/i&gt;&amp;nbsp;liczbami całkowitymi od 2 do &lt;i&gt;N&lt;/i&gt;" style="rounded=0;whiteSpace=wrap;html=1;" parent="1" vertex="1">
          <mxGeometry x="620" y="240" width="120" height="60" as="geometry" />
        </mxCell>
        <mxCell id="3G0gbCFOmfLACH73Wg2g-17" value="tak" style="edgeStyle=orthogonalEdgeStyle;rounded=0;orthogonalLoop=1;jettySize=auto;html=1;exitX=0.5;exitY=1;exitDx=0;exitDy=0;entryX=0.5;entryY=0;entryDx=0;entryDy=0;" parent="1" source="3G0gbCFOmfLACH73Wg2g-12" target="3G0gbCFOmfLACH73Wg2g-16" edge="1">
          <mxGeometry relative="1" as="geometry" />
        </mxCell>
        <mxCell id="3G0gbCFOmfLACH73Wg2g-36" style="edgeStyle=orthogonalEdgeStyle;rounded=0;orthogonalLoop=1;jettySize=auto;html=1;exitX=0;exitY=0.5;exitDx=0;exitDy=0;entryX=1;entryY=0.75;entryDx=0;entryDy=0;" parent="1" source="3G0gbCFOmfLACH73Wg2g-12" target="3G0gbCFOmfLACH73Wg2g-18" edge="1">
          <mxGeometry relative="1" as="geometry">
            <mxPoint x="370" y="540" as="targetPoint" />
          </mxGeometry>
        </mxCell>
        <mxCell id="3G0gbCFOmfLACH73Wg2g-40" value="nie" style="edgeLabel;html=1;align=center;verticalAlign=middle;resizable=0;points=[];" parent="3G0gbCFOmfLACH73Wg2g-36" vertex="1" connectable="0">
          <mxGeometry x="-0.8769" y="2" relative="1" as="geometry">
            <mxPoint as="offset" />
          </mxGeometry>
        </mxCell>
        <mxCell id="3G0gbCFOmfLACH73Wg2g-12" value="&lt;i&gt;reszta z &lt;br&gt;numall[ i ]/x == 0&amp;nbsp;&lt;/i&gt;" style="rhombus;whiteSpace=wrap;html=1;" parent="1" vertex="1">
          <mxGeometry x="610" y="500" width="130" height="105" as="geometry" />
        </mxCell>
        <mxCell id="3G0gbCFOmfLACH73Wg2g-37" style="edgeStyle=orthogonalEdgeStyle;rounded=0;orthogonalLoop=1;jettySize=auto;html=1;exitX=0;exitY=0.25;exitDx=0;exitDy=0;entryX=0.75;entryY=1;entryDx=0;entryDy=0;" parent="1" source="3G0gbCFOmfLACH73Wg2g-16" target="3G0gbCFOmfLACH73Wg2g-18" edge="1">
          <mxGeometry relative="1" as="geometry">
            <mxPoint x="350" y="540" as="targetPoint" />
          </mxGeometry>
        </mxCell>
        <mxCell id="3G0gbCFOmfLACH73Wg2g-16" value="&lt;i&gt;numall[ i ] = 0&lt;/i&gt;" style="rounded=0;whiteSpace=wrap;html=1;" parent="1" vertex="1">
          <mxGeometry x="630" y="650" width="90" height="30" as="geometry" />
        </mxCell>
        <mxCell id="E5H5sjJyILEl3cgxIu15-8" style="edgeStyle=orthogonalEdgeStyle;rounded=0;orthogonalLoop=1;jettySize=auto;html=1;exitX=0.5;exitY=0;exitDx=0;exitDy=0;entryX=0.5;entryY=1;entryDx=0;entryDy=0;" parent="1" source="3G0gbCFOmfLACH73Wg2g-18" target="E5H5sjJyILEl3cgxIu15-1" edge="1">
          <mxGeometry relative="1" as="geometry" />
        </mxCell>
        <mxCell id="3G0gbCFOmfLACH73Wg2g-18" value="i = i+4" style="rounded=0;whiteSpace=wrap;html=1;" parent="1" vertex="1">
          <mxGeometry x="310" y="530" width="80" height="30" as="geometry" />
        </mxCell>
        <mxCell id="3G0gbCFOmfLACH73Wg2g-67" value="tak" style="edgeStyle=orthogonalEdgeStyle;rounded=0;orthogonalLoop=1;jettySize=auto;html=1;exitX=1;exitY=0.5;exitDx=0;exitDy=0;entryX=0;entryY=0.5;entryDx=0;entryDy=0;" parent="1" source="3G0gbCFOmfLACH73Wg2g-27" edge="1" target="lhCDFVgRR21-XCeL078A-2">
          <mxGeometry relative="1" as="geometry">
            <mxPoint x="780" y="400" as="targetPoint" />
          </mxGeometry>
        </mxCell>
        <mxCell id="E5H5sjJyILEl3cgxIu15-7" value="nie" style="edgeStyle=orthogonalEdgeStyle;rounded=0;orthogonalLoop=1;jettySize=auto;html=1;exitX=0.5;exitY=1;exitDx=0;exitDy=0;entryX=0.5;entryY=0;entryDx=0;entryDy=0;" parent="1" source="3G0gbCFOmfLACH73Wg2g-27" target="3G0gbCFOmfLACH73Wg2g-12" edge="1">
          <mxGeometry relative="1" as="geometry" />
        </mxCell>
        <mxCell id="3G0gbCFOmfLACH73Wg2g-27" value="x &amp;gt; N/2" style="rhombus;whiteSpace=wrap;html=1;" parent="1" vertex="1">
          <mxGeometry x="640" y="370" width="80" height="80" as="geometry" />
        </mxCell>
        <mxCell id="3G0gbCFOmfLACH73Wg2g-64" style="edgeStyle=orthogonalEdgeStyle;rounded=0;orthogonalLoop=1;jettySize=auto;html=1;exitX=1;exitY=1;exitDx=0;exitDy=0;entryX=0;entryY=0.5;entryDx=0;entryDy=0;" parent="1" source="3G0gbCFOmfLACH73Wg2g-41" target="3G0gbCFOmfLACH73Wg2g-27" edge="1">
          <mxGeometry relative="1" as="geometry" />
        </mxCell>
        <mxCell id="3G0gbCFOmfLACH73Wg2g-65" value="tak" style="edgeLabel;html=1;align=center;verticalAlign=middle;resizable=0;points=[];" parent="3G0gbCFOmfLACH73Wg2g-64" vertex="1" connectable="0">
          <mxGeometry x="-0.8288" y="-2" relative="1" as="geometry">
            <mxPoint as="offset" />
          </mxGeometry>
        </mxCell>
        <mxCell id="lhCDFVgRR21-XCeL078A-1" value="nie" style="edgeStyle=orthogonalEdgeStyle;rounded=0;orthogonalLoop=1;jettySize=auto;html=1;exitX=0.5;exitY=0;exitDx=0;exitDy=0;entryX=0;entryY=0.25;entryDx=0;entryDy=0;" edge="1" parent="1" source="3G0gbCFOmfLACH73Wg2g-41" target="3G0gbCFOmfLACH73Wg2g-50">
          <mxGeometry relative="1" as="geometry" />
        </mxCell>
        <mxCell id="3G0gbCFOmfLACH73Wg2g-41" value="i &amp;lt; N*4" style="rhombus;whiteSpace=wrap;html=1;" parent="1" vertex="1">
          <mxGeometry x="300" y="340" width="100" height="70" as="geometry" />
        </mxCell>
        <mxCell id="3G0gbCFOmfLACH73Wg2g-46" value="(Pomijam sprawdzanie liczb parzystych,&lt;br&gt;&amp;nbsp;bo te zostały już usunięte przez x = 2)&lt;br&gt;i = 4*x bo sprawdzamy od większych liczb" style="text;html=1;align=center;verticalAlign=middle;resizable=0;points=[];autosize=1;strokeColor=none;fillColor=none;" parent="1" vertex="1">
          <mxGeometry x="315" y="140" width="250" height="60" as="geometry" />
        </mxCell>
        <mxCell id="3G0gbCFOmfLACH73Wg2g-61" style="edgeStyle=orthogonalEdgeStyle;rounded=0;orthogonalLoop=1;jettySize=auto;html=1;exitX=1;exitY=0.5;exitDx=0;exitDy=0;entryX=0;entryY=0.5;entryDx=0;entryDy=0;" parent="1" source="3G0gbCFOmfLACH73Wg2g-50" target="3G0gbCFOmfLACH73Wg2g-58" edge="1">
          <mxGeometry relative="1" as="geometry" />
        </mxCell>
        <mxCell id="3G0gbCFOmfLACH73Wg2g-50" value="i = 4*x&lt;br&gt;x = x+1" style="rounded=0;whiteSpace=wrap;html=1;" parent="1" vertex="1">
          <mxGeometry x="390" y="310" width="80" height="40" as="geometry" />
        </mxCell>
        <mxCell id="3G0gbCFOmfLACH73Wg2g-59" style="edgeStyle=orthogonalEdgeStyle;rounded=0;orthogonalLoop=1;jettySize=auto;html=1;exitX=1;exitY=1;exitDx=0;exitDy=0;entryX=0;entryY=0;entryDx=0;entryDy=0;" parent="1" source="3G0gbCFOmfLACH73Wg2g-58" target="3G0gbCFOmfLACH73Wg2g-27" edge="1">
          <mxGeometry relative="1" as="geometry" />
        </mxCell>
        <mxCell id="3G0gbCFOmfLACH73Wg2g-60" value="nie" style="edgeLabel;html=1;align=center;verticalAlign=middle;resizable=0;points=[];" parent="3G0gbCFOmfLACH73Wg2g-59" vertex="1" connectable="0">
          <mxGeometry x="-0.7065" y="-1" relative="1" as="geometry">
            <mxPoint as="offset" />
          </mxGeometry>
        </mxCell>
        <mxCell id="3G0gbCFOmfLACH73Wg2g-62" style="edgeStyle=orthogonalEdgeStyle;rounded=0;orthogonalLoop=1;jettySize=auto;html=1;exitX=0.5;exitY=0;exitDx=0;exitDy=0;entryX=0.5;entryY=0;entryDx=0;entryDy=0;" parent="1" source="3G0gbCFOmfLACH73Wg2g-58" target="3G0gbCFOmfLACH73Wg2g-50" edge="1">
          <mxGeometry relative="1" as="geometry" />
        </mxCell>
        <mxCell id="3G0gbCFOmfLACH73Wg2g-63" value="tak" style="edgeLabel;html=1;align=center;verticalAlign=middle;resizable=0;points=[];" parent="3G0gbCFOmfLACH73Wg2g-62" vertex="1" connectable="0">
          <mxGeometry x="-0.4396" y="1" relative="1" as="geometry">
            <mxPoint as="offset" />
          </mxGeometry>
        </mxCell>
        <mxCell id="3G0gbCFOmfLACH73Wg2g-58" value="reszta z&lt;br&gt;x / 2 = 0" style="rhombus;whiteSpace=wrap;html=1;" parent="1" vertex="1">
          <mxGeometry x="500" y="290" width="80" height="80" as="geometry" />
        </mxCell>
        <mxCell id="3G0gbCFOmfLACH73Wg2g-68" value="Zapis wszystkich liczb z &lt;i&gt;numall&lt;/i&gt;&amp;nbsp;które !=0 do tablicy primes.&lt;br&gt;Z każdym dodaniem zwiększaj &lt;i&gt;nprimes&lt;/i&gt;&amp;nbsp;o 1" style="text;html=1;align=center;verticalAlign=middle;resizable=0;points=[];autosize=1;strokeColor=none;fillColor=none;" parent="1" vertex="1">
          <mxGeometry x="790" y="330" width="340" height="40" as="geometry" />
        </mxCell>
        <mxCell id="3G0gbCFOmfLACH73Wg2g-70" value="i+ taka ilość bajtów żeby przejść do następnej liczby" style="text;html=1;align=center;verticalAlign=middle;resizable=0;points=[];autosize=1;strokeColor=none;fillColor=none;" parent="1" vertex="1">
          <mxGeometry x="10" y="530" width="300" height="30" as="geometry" />
        </mxCell>
        <mxCell id="E5H5sjJyILEl3cgxIu15-9" value="tak" style="edgeStyle=orthogonalEdgeStyle;rounded=0;orthogonalLoop=1;jettySize=auto;html=1;exitX=1;exitY=0.5;exitDx=0;exitDy=0;entryX=1;entryY=0;entryDx=0;entryDy=0;" parent="1" source="E5H5sjJyILEl3cgxIu15-1" target="3G0gbCFOmfLACH73Wg2g-18" edge="1">
          <mxGeometry relative="1" as="geometry" />
        </mxCell>
        <mxCell id="E5H5sjJyILEl3cgxIu15-10" value="nie" style="edgeStyle=orthogonalEdgeStyle;rounded=0;orthogonalLoop=1;jettySize=auto;html=1;exitX=0.5;exitY=0;exitDx=0;exitDy=0;entryX=0.5;entryY=1;entryDx=0;entryDy=0;" parent="1" source="E5H5sjJyILEl3cgxIu15-1" target="3G0gbCFOmfLACH73Wg2g-41" edge="1">
          <mxGeometry relative="1" as="geometry" />
        </mxCell>
        <mxCell id="E5H5sjJyILEl3cgxIu15-1" value="numall[ i ] == 0" style="rhombus;whiteSpace=wrap;html=1;" parent="1" vertex="1">
          <mxGeometry x="300" y="450" width="100" height="60" as="geometry" />
        </mxCell>
        <mxCell id="E5H5sjJyILEl3cgxIu15-4" value="jeżeli liczba jest już usunięta,&lt;br&gt;to nie ma sensu sprawdzać dla niej podzielności,&lt;br&gt;pomijam" style="text;html=1;align=center;verticalAlign=middle;resizable=0;points=[];autosize=1;strokeColor=none;fillColor=none;" parent="1" vertex="1">
          <mxGeometry x="60" y="430" width="280" height="60" as="geometry" />
        </mxCell>
        <mxCell id="lhCDFVgRR21-XCeL078A-49" style="edgeStyle=orthogonalEdgeStyle;rounded=0;orthogonalLoop=1;jettySize=auto;html=1;exitX=1;exitY=0.25;exitDx=0;exitDy=0;entryX=0;entryY=0;entryDx=0;entryDy=0;" edge="1" parent="1" source="lhCDFVgRR21-XCeL078A-2" target="lhCDFVgRR21-XCeL078A-3">
          <mxGeometry relative="1" as="geometry" />
        </mxCell>
        <mxCell id="lhCDFVgRR21-XCeL078A-2" value="x = 0&lt;br&gt;i = 0" style="rounded=0;whiteSpace=wrap;html=1;" vertex="1" parent="1">
          <mxGeometry x="765" y="387.5" width="50" height="45" as="geometry" />
        </mxCell>
        <mxCell id="lhCDFVgRR21-XCeL078A-6" value="nie" style="edgeStyle=orthogonalEdgeStyle;rounded=0;orthogonalLoop=1;jettySize=auto;html=1;exitX=0.5;exitY=1;exitDx=0;exitDy=0;entryX=0.5;entryY=0;entryDx=0;entryDy=0;" edge="1" parent="1" source="lhCDFVgRR21-XCeL078A-3" target="lhCDFVgRR21-XCeL078A-5">
          <mxGeometry relative="1" as="geometry" />
        </mxCell>
        <mxCell id="lhCDFVgRR21-XCeL078A-11" style="edgeStyle=orthogonalEdgeStyle;rounded=0;orthogonalLoop=1;jettySize=auto;html=1;exitX=1;exitY=0.5;exitDx=0;exitDy=0;entryX=1;entryY=0.5;entryDx=0;entryDy=0;" edge="1" parent="1" source="lhCDFVgRR21-XCeL078A-3" target="lhCDFVgRR21-XCeL078A-7">
          <mxGeometry relative="1" as="geometry">
            <Array as="points">
              <mxPoint x="1050" y="415" />
              <mxPoint x="1050" y="625" />
            </Array>
          </mxGeometry>
        </mxCell>
        <mxCell id="lhCDFVgRR21-XCeL078A-12" value="tak" style="edgeLabel;html=1;align=center;verticalAlign=middle;resizable=0;points=[];" vertex="1" connectable="0" parent="lhCDFVgRR21-XCeL078A-11">
          <mxGeometry x="-0.76" relative="1" as="geometry">
            <mxPoint as="offset" />
          </mxGeometry>
        </mxCell>
        <mxCell id="lhCDFVgRR21-XCeL078A-3" value="numall[ i ] == 0" style="rhombus;whiteSpace=wrap;html=1;" vertex="1" parent="1">
          <mxGeometry x="910" y="377.5" width="100" height="75" as="geometry" />
        </mxCell>
        <mxCell id="lhCDFVgRR21-XCeL078A-8" style="edgeStyle=orthogonalEdgeStyle;rounded=0;orthogonalLoop=1;jettySize=auto;html=1;exitX=0.5;exitY=1;exitDx=0;exitDy=0;entryX=0.5;entryY=0;entryDx=0;entryDy=0;" edge="1" parent="1" source="lhCDFVgRR21-XCeL078A-5" target="lhCDFVgRR21-XCeL078A-7">
          <mxGeometry relative="1" as="geometry" />
        </mxCell>
        <mxCell id="lhCDFVgRR21-XCeL078A-5" value="nprimes = nprimes + 1&lt;br&gt;&lt;br&gt;primes[ x ] = numall[ i ]&lt;br&gt;&lt;br&gt;x = x +4" style="rounded=0;whiteSpace=wrap;html=1;" vertex="1" parent="1">
          <mxGeometry x="890" y="485" width="140" height="90" as="geometry" />
        </mxCell>
        <mxCell id="lhCDFVgRR21-XCeL078A-17" style="edgeStyle=orthogonalEdgeStyle;rounded=0;orthogonalLoop=1;jettySize=auto;html=1;exitX=0;exitY=0.5;exitDx=0;exitDy=0;entryX=1;entryY=0.5;entryDx=0;entryDy=0;" edge="1" parent="1" source="lhCDFVgRR21-XCeL078A-7" target="lhCDFVgRR21-XCeL078A-16">
          <mxGeometry relative="1" as="geometry" />
        </mxCell>
        <mxCell id="lhCDFVgRR21-XCeL078A-7" value="i = i + 4" style="rounded=0;whiteSpace=wrap;html=1;" vertex="1" parent="1">
          <mxGeometry x="920" y="605" width="80" height="40" as="geometry" />
        </mxCell>
        <mxCell id="lhCDFVgRR21-XCeL078A-20" style="edgeStyle=orthogonalEdgeStyle;rounded=0;orthogonalLoop=1;jettySize=auto;html=1;exitX=0.5;exitY=0;exitDx=0;exitDy=0;entryX=0;entryY=0.5;entryDx=0;entryDy=0;" edge="1" parent="1" source="lhCDFVgRR21-XCeL078A-16" target="lhCDFVgRR21-XCeL078A-3">
          <mxGeometry relative="1" as="geometry" />
        </mxCell>
        <mxCell id="lhCDFVgRR21-XCeL078A-21" value="tak" style="edgeLabel;html=1;align=center;verticalAlign=middle;resizable=0;points=[];" vertex="1" connectable="0" parent="lhCDFVgRR21-XCeL078A-20">
          <mxGeometry x="-0.698" relative="1" as="geometry">
            <mxPoint as="offset" />
          </mxGeometry>
        </mxCell>
        <mxCell id="lhCDFVgRR21-XCeL078A-23" value="nie" style="edgeStyle=orthogonalEdgeStyle;rounded=0;orthogonalLoop=1;jettySize=auto;html=1;exitX=0.5;exitY=1;exitDx=0;exitDy=0;entryX=0.5;entryY=0;entryDx=0;entryDy=0;" edge="1" parent="1" source="lhCDFVgRR21-XCeL078A-16" target="lhCDFVgRR21-XCeL078A-26">
          <mxGeometry relative="1" as="geometry">
            <mxPoint x="840" y="705" as="targetPoint" />
          </mxGeometry>
        </mxCell>
        <mxCell id="lhCDFVgRR21-XCeL078A-16" value="i &amp;lt; N*4" style="rhombus;whiteSpace=wrap;html=1;" vertex="1" parent="1">
          <mxGeometry x="790" y="590" width="100" height="70" as="geometry" />
        </mxCell>
        <mxCell id="lhCDFVgRR21-XCeL078A-25" value="Wyświetlanie tablicy primes do konsoli" style="text;html=1;align=center;verticalAlign=middle;resizable=0;points=[];autosize=1;strokeColor=none;fillColor=none;" vertex="1" parent="1">
          <mxGeometry x="850" y="690" width="230" height="30" as="geometry" />
        </mxCell>
        <mxCell id="lhCDFVgRR21-XCeL078A-40" style="edgeStyle=orthogonalEdgeStyle;rounded=0;orthogonalLoop=1;jettySize=auto;html=1;exitX=1;exitY=0.75;exitDx=0;exitDy=0;entryX=0;entryY=0.25;entryDx=0;entryDy=0;" edge="1" parent="1" source="lhCDFVgRR21-XCeL078A-26" target="lhCDFVgRR21-XCeL078A-28">
          <mxGeometry relative="1" as="geometry" />
        </mxCell>
        <mxCell id="lhCDFVgRR21-XCeL078A-26" value="i = 0" style="rounded=0;whiteSpace=wrap;html=1;" vertex="1" parent="1">
          <mxGeometry x="815" y="730" width="50" height="30" as="geometry" />
        </mxCell>
        <mxCell id="lhCDFVgRR21-XCeL078A-37" value="nie" style="edgeStyle=orthogonalEdgeStyle;rounded=0;orthogonalLoop=1;jettySize=auto;html=1;exitX=1;exitY=0.5;exitDx=0;exitDy=0;" edge="1" parent="1" source="lhCDFVgRR21-XCeL078A-27" target="lhCDFVgRR21-XCeL078A-32">
          <mxGeometry relative="1" as="geometry" />
        </mxCell>
        <mxCell id="lhCDFVgRR21-XCeL078A-44" value="tak" style="edgeStyle=orthogonalEdgeStyle;rounded=0;orthogonalLoop=1;jettySize=auto;html=1;exitX=0;exitY=0.5;exitDx=0;exitDy=0;entryX=0;entryY=0.75;entryDx=0;entryDy=0;" edge="1" parent="1" source="lhCDFVgRR21-XCeL078A-27" target="lhCDFVgRR21-XCeL078A-28">
          <mxGeometry relative="1" as="geometry">
            <mxPoint x="865" y="885" as="targetPoint" />
          </mxGeometry>
        </mxCell>
        <mxCell id="lhCDFVgRR21-XCeL078A-27" value="i &amp;lt; nprimes*4" style="rhombus;whiteSpace=wrap;html=1;" vertex="1" parent="1">
          <mxGeometry x="910" y="880" width="100" height="70" as="geometry" />
        </mxCell>
        <mxCell id="lhCDFVgRR21-XCeL078A-47" style="edgeStyle=orthogonalEdgeStyle;rounded=0;orthogonalLoop=1;jettySize=auto;html=1;exitX=0.5;exitY=1;exitDx=0;exitDy=0;entryX=0.5;entryY=0;entryDx=0;entryDy=0;" edge="1" parent="1" source="lhCDFVgRR21-XCeL078A-28" target="lhCDFVgRR21-XCeL078A-46">
          <mxGeometry relative="1" as="geometry" />
        </mxCell>
        <mxCell id="lhCDFVgRR21-XCeL078A-28" value="print(primes[ i ])&lt;br&gt;print(\n)" style="rounded=0;whiteSpace=wrap;html=1;" vertex="1" parent="1">
          <mxGeometry x="910" y="750" width="110" height="60" as="geometry" />
        </mxCell>
        <mxCell id="lhCDFVgRR21-XCeL078A-32" value="Koniec" style="ellipse;whiteSpace=wrap;html=1;fontSize=14;" vertex="1" parent="1">
          <mxGeometry x="1080" y="855" width="100" height="60" as="geometry" />
        </mxCell>
        <mxCell id="lhCDFVgRR21-XCeL078A-48" style="edgeStyle=orthogonalEdgeStyle;rounded=0;orthogonalLoop=1;jettySize=auto;html=1;exitX=0.5;exitY=1;exitDx=0;exitDy=0;" edge="1" parent="1" source="lhCDFVgRR21-XCeL078A-46" target="lhCDFVgRR21-XCeL078A-27">
          <mxGeometry relative="1" as="geometry" />
        </mxCell>
        <mxCell id="lhCDFVgRR21-XCeL078A-46" value="i = i +4" style="rounded=0;whiteSpace=wrap;html=1;" vertex="1" parent="1">
          <mxGeometry x="930" y="830" width="60" height="30" as="geometry" />
        </mxCell>
        <mxCell id="lhCDFVgRR21-XCeL078A-52" style="edgeStyle=orthogonalEdgeStyle;rounded=0;orthogonalLoop=1;jettySize=auto;html=1;exitX=0.5;exitY=1;exitDx=0;exitDy=0;entryX=0.5;entryY=0;entryDx=0;entryDy=0;" edge="1" parent="1" source="lhCDFVgRR21-XCeL078A-50" target="3G0gbCFOmfLACH73Wg2g-27">
          <mxGeometry relative="1" as="geometry" />
        </mxCell>
        <mxCell id="lhCDFVgRR21-XCeL078A-50" value="i = 4&lt;br&gt;x = 0" style="rounded=0;whiteSpace=wrap;html=1;" vertex="1" parent="1">
          <mxGeometry x="660" y="320" width="40" height="30" as="geometry" />
        </mxCell>
      </root>
    </mxGraphModel>
  </diagram>
</mxfile>
